<?xml version="1.0" standalone="no"?>
<!DOCTYPE svg PUBLIC "-//W3C//DTD SVG 20010904//EN"
 "http://www.w3.org/TR/2001/REC-SVG-20010904/DTD/svg10.dtd">
<svg version="1.0" xmlns="http://www.w3.org/2000/svg"
 width="765.000000pt" height="326.000000pt" viewBox="0 0 765.000000 326.000000"
 preserveAspectRatio="xMidYMid meet">

<g transform="translate(0.000000,326.000000) scale(0.100000,-0.100000)"
fill="#000000" stroke="none">
<path d="M590 1655 l0 -1275 1015 0 1015 0 0 265 0 265 -759 0 c-470 0 -769 4
-785 10 l-26 10 0 1000 0 1000 -230 0 -230 0 0 -1275z"/>
<path d="M1920 2500 l0 -240 225 0 225 0 0 240 0 240 -225 0 -225 0 0 -240z"/>
<path d="M1925 2098 c-3 -7 -4 -233 -3 -503 l3 -490 230 0 230 0 0 500 0 500
-228 3 c-177 2 -229 0 -232 -10z"/>
<path d="M3302 1848 c-9 -9 -12 -80 -12 -259 0 -215 2 -250 16 -264 14 -14 19
-14 38 -2 20 14 21 22 24 260 2 213 0 247 -14 261 -18 19 -36 20 -52 4z"/>
<path d="M6072 1851 c-8 -4 -12 -21 -10 -37 2 -25 7 -29 32 -29 36 0 56 27 40
53 -13 19 -43 26 -62 13z"/>
<path d="M5817 1813 c-4 -3 -7 -26 -7 -49 0 -41 -2 -43 -31 -46 -63 -6 -61
-68 2 -68 l29 0 0 -139 c0 -131 1 -142 23 -166 43 -51 150 -31 132 25 -5 17
-12 20 -32 15 -46 -11 -53 6 -53 141 l0 124 39 0 c78 0 81 62 2 68 -39 3 -41
5 -41 37 0 18 -3 40 -6 49 -6 16 -45 22 -57 9z"/>
<path d="M3640 1714 c-19 -8 -45 -25 -57 -36 -18 -16 -23 -18 -23 -7 0 29 -25
52 -48 45 -22 -7 -22 -11 -22 -196 0 -177 1 -190 19 -200 15 -7 23 -6 35 6 13
12 16 40 16 143 l0 127 29 28 c18 17 44 30 69 33 36 5 45 2 72 -25 l30 -30 0
-136 c0 -117 2 -136 17 -145 11 -6 24 -6 35 0 16 9 18 26 18 149 0 196 -19
237 -120 254 -22 4 -48 0 -70 -10z"/>
<path d="M4095 1712 c-22 -10 -46 -26 -54 -35 -19 -24 -31 -21 -31 7 0 17 -7
27 -22 32 -41 13 -48 -15 -48 -190 0 -187 4 -206 35 -206 40 0 46 20 44 148 0
75 4 128 11 142 16 29 75 53 115 46 62 -12 70 -32 73 -187 3 -123 6 -140 22
-149 14 -7 23 -6 35 7 25 24 18 296 -8 336 -38 59 -108 78 -172 49z"/>
<path d="M4532 1720 c-124 -30 -189 -174 -133 -295 70 -152 285 -154 362 -3
27 54 26 142 -4 199 -40 75 -141 120 -225 99z m103 -74 c53 -23 77 -69 72
-140 -3 -53 -7 -62 -40 -92 -31 -29 -44 -34 -87 -34 -43 0 -56 5 -87 34 -33
30 -37 39 -40 92 -5 70 19 117 70 139 41 18 69 18 112 1z"/>
<path d="M5410 1718 c-77 -22 -126 -85 -137 -176 -7 -65 12 -126 53 -172 62
-68 159 -79 229 -26 33 25 35 26 35 7 0 -26 30 -43 53 -30 15 9 17 30 17 199
0 171 -2 190 -18 199 -23 12 -52 -4 -52 -30 0 -18 -2 -18 -37 5 -46 29 -96 38
-143 24z m105 -72 c68 -29 96 -125 59 -202 -20 -42 -59 -64 -112 -64 -129 0
-169 202 -51 262 41 22 59 22 104 4z"/>
<path d="M6365 1716 c-62 -19 -90 -42 -119 -95 -32 -59 -35 -136 -7 -196 63
-137 248 -154 345 -32 27 33 31 48 34 110 3 61 0 79 -21 117 -42 80 -147 124
-232 96z m110 -70 c53 -23 77 -69 72 -140 -3 -53 -7 -62 -40 -92 -65 -60 -161
-43 -202 36 -34 66 -7 158 56 192 41 22 68 23 114 4z"/>
<path d="M6865 1712 c-22 -11 -49 -29 -60 -42 l-20 -22 -5 27 c-7 36 -33 53
-54 36 -24 -20 -24 -362 0 -385 12 -12 20 -13 35 -6 17 10 19 22 19 131 0 89
4 128 16 150 30 59 134 76 169 26 11 -16 15 -51 15 -149 0 -114 2 -130 20
-148 24 -24 48 -17 56 16 12 45 -1 277 -16 308 -32 64 -108 89 -175 58z"/>
<path d="M4852 1708 c-7 -7 -12 -16 -12 -21 0 -16 151 -352 165 -366 30 -30
50 -3 129 178 43 98 76 187 74 197 -2 12 -12 19 -28 19 -22 0 -30 -14 -85
-142 -33 -79 -62 -143 -65 -143 -3 0 -32 62 -64 138 -66 154 -81 173 -114 140z"/>
<path d="M6072 1708 c-8 -8 -12 -65 -12 -189 0 -148 3 -180 16 -193 12 -12 20
-13 35 -6 18 10 19 23 19 199 0 163 -2 190 -16 195 -22 8 -28 8 -42 -6z"/>
</g>
</svg>
